<svg xmlns="http://www.w3.org/2000/svg" width="28.015" height="17" viewBox="0 0 28.015 17"><path fill="#fff" d="M11.283 7.61c.779-.357 1.361-.816 1.759-1.376.393-.562.59-1.263.59-2.103 0-.777-.132-1.434-.395-1.958-.269-.533-.645-.955-1.124-1.273-.488-.318-1.065-.549-1.741-.688-.68-.143-1.424-.212-2.248-.212h-8.124v16.688h8.353c.771 0 1.525-.095 2.252-.281.734-.186 1.39-.473 1.959-.865.567-.388 1.026-.891 1.364-1.511.333-.613.501-1.341.501-2.188 0-1.043-.256-1.934-.779-2.678-.521-.74-1.307-1.26-2.367-1.555zm-7.489-4.768h3.549c.336 0 .664.023.976.083.318.053.593.15.835.293.246.136.439.331.586.58.141.25.211.57.211.958 0 .7-.211 1.209-.648 1.519-.441.313-.998.467-1.67.467h-3.839v-3.9zm6.624 9.879c-.153.282-.363.504-.617.666-.253.168-.555.282-.894.354-.335.072-.69.104-1.064.104h-4.049v-4.595h4.125c.816 0 1.48.182 1.978.548.497.371.747.981.747 1.841 0 .439-.073.802-.226 1.082zm13.426 1.292c-.501.338-1.099.507-1.79.507-.961 0-1.703-.243-2.216-.729-.515-.486-.849-1.39-.849-2.346h9.004c.063-.937-.014-1.833-.238-2.689-.227-.858-.589-1.624-1.098-2.293-.508-.67-1.155-1.206-1.945-1.601-.792-.4-1.718-.597-2.772-.597-.956 0-1.819.165-2.602.491-.783.329-1.456.778-2.022 1.348-.565.566-.996 1.242-1.307 2.024-.305.781-.461 1.625-.461 2.529 0 .933.15 1.796.448 2.574.301.783.723 1.45 1.268 2.015.557.561 1.221.991 2.015 1.298.793.303 1.678.456 2.66.456 1.41 0 2.621-.312 3.613-.939 1.003-.626 1.739-1.664 2.225-3.119h-3.019c-.116.373-.417.735-.914 1.071zm-4.698-5.456c.088-.302.239-.583.459-.851.223-.263.514-.486.868-.666.363-.182.815-.271 1.363-.271.843 0 1.532.236 1.939.673.409.44.708 1.065.79 1.912h-5.576c.016-.236.069-.502.157-.797zm6.127-7.437h-6.985v1.646h6.985v-1.646z"/></svg>