<svg xmlns="http://www.w3.org/2000/svg" width="22" height="22" viewBox="0 0 22 22"><path fill-rule="evenodd" clip-rule="evenodd" fill="#fff" d="M11 22c-6.065 0-11-4.934-11-11 0-6.065 4.935-11 11-11s11 4.935 11 11c0 6.066-4.935 11-11 11zm9.276-9.495c-.321-.101-2.908-.873-5.853-.401 1.229 3.377 1.729 6.128 1.825 6.699 2.109-1.426 3.609-3.683 4.028-6.298zm-5.606 7.159c-.14-.824-.686-3.697-2.005-7.125l-.062.021c-5.299 1.847-7.202 5.521-7.371 5.867 1.594 1.242 3.596 1.983 5.768 1.983 1.302 0 2.542-.266 3.67-.746zm-10.65-2.368c.213-.364 2.792-4.634 7.637-6.2l.371-.112c-.236-.534-.493-1.068-.762-1.594-4.692 1.404-9.245 1.346-9.656 1.337l-.005.287c-.001 2.413.914 4.617 2.415 6.282zm-2.217-8.206c.42.006 4.291.022 8.686-1.145-1.557-2.767-3.236-5.094-3.484-5.434-2.629 1.24-4.593 3.663-5.202 6.579zm6.995-7.21c.26.348 1.966 2.671 3.506 5.5 3.341-1.252 4.756-3.153 4.925-3.394-1.66-1.472-3.842-2.367-6.229-2.367-.758 0-1.496.09-2.202.261zm9.474 3.193c-.198.268-1.772 2.286-5.246 3.705.219.448.428.903.623 1.361l.202.485c3.127-.393 6.233.237 6.543.303-.02-2.219-.813-4.256-2.122-5.854z"/></svg>