<?xml version="1.0" encoding="utf-8"?>
<!-- Generator: Adobe Illustrator 16.0.0, SVG Export Plug-In . SVG Version: 6.00 Build 0)  -->
<!DOCTYPE svg PUBLIC "-//W3C//DTD SVG 1.1//EN" "http://www.w3.org/Graphics/SVG/1.1/DTD/svg11.dtd">
<svg version="1.1" id="Layer_1" xmlns="http://www.w3.org/2000/svg" xmlns:xlink="http://www.w3.org/1999/xlink" x="0px" y="0px"
	 width="22px" height="22px" viewBox="0 0 22 22" enable-background="new 0 0 22 22" xml:space="preserve">
<path fill-rule="evenodd" clip-rule="evenodd" fill="#FFFFFF" d="M11,22C4.935,22,0,17.066,0,11C0,4.935,4.935,0,11,0
	s11,4.935,11,11C22,17.066,17.065,22,11,22z M20.276,12.505c-0.321-0.101-2.908-0.873-5.853-0.401
	c1.229,3.377,1.729,6.128,1.825,6.699C18.357,17.377,19.857,15.12,20.276,12.505z M14.67,19.664
	c-0.14-0.824-0.686-3.697-2.005-7.125c-0.021,0.007-0.041,0.014-0.062,0.021c-5.299,1.847-7.202,5.521-7.371,5.867
	C6.826,19.669,8.828,20.41,11,20.41C12.302,20.41,13.542,20.144,14.67,19.664z M4.02,17.296c0.213-0.364,2.792-4.634,7.637-6.2
	c0.123-0.04,0.246-0.077,0.371-0.112c-0.236-0.534-0.493-1.068-0.762-1.594c-4.692,1.404-9.245,1.346-9.656,1.337
	c-0.003,0.096-0.005,0.191-0.005,0.287C1.604,13.427,2.519,15.631,4.02,17.296z M1.803,9.09c0.42,0.006,4.291,0.022,8.686-1.145
	C8.932,5.178,7.253,2.851,7.005,2.511C4.376,3.751,2.412,6.174,1.803,9.09z M8.798,1.88c0.26,0.348,1.966,2.671,3.506,5.5
	c3.341-1.252,4.756-3.153,4.925-3.394C15.569,2.514,13.387,1.619,11,1.619C10.242,1.619,9.504,1.709,8.798,1.88z M18.272,5.073
	c-0.198,0.268-1.772,2.286-5.246,3.705c0.219,0.448,0.428,0.903,0.623,1.361c0.069,0.163,0.137,0.324,0.202,0.485
	c3.127-0.393,6.233,0.237,6.543,0.303C20.374,8.708,19.581,6.671,18.272,5.073z"/>
</svg>
