<svg xmlns="http://www.w3.org/2000/svg" width="25" height="20.317" viewBox="0 0 25 20.317"><path fill="#fff" d="M25 2.405c-.92.408-1.908.684-2.945.808 1.059-.635 1.872-1.64 2.255-2.838-.991.588-2.089 1.015-3.257 1.245-.936-.997-2.269-1.62-3.744-1.62-2.832 0-5.129 2.296-5.129 5.129 0 .402.045.793.133 1.169-4.263-.214-8.042-2.256-10.572-5.359-.442.757-.695 1.638-.695 2.579 0 1.779.905 3.349 2.282 4.269-.841-.027-1.632-.258-2.323-.642v.064c0 2.485 1.768 4.559 4.114 5.029-.43.117-.883.18-1.351.18-.331 0-.652-.032-.965-.092.653 2.038 2.547 3.521 4.792 3.562-1.755 1.376-3.967 2.196-6.37 2.196-.414 0-.822-.024-1.224-.072 2.27 1.456 4.966 2.305 7.863 2.305 9.434 0 14.593-7.815 14.593-14.593l-.016-.664c1.002-.723 1.871-1.626 2.559-2.655z"/></svg>