<?xml version="1.0" encoding="utf-8"?>
<!-- Generator: Adobe Illustrator 16.0.0, SVG Export Plug-In . SVG Version: 6.00 Build 0)  -->
<!DOCTYPE svg PUBLIC "-//W3C//DTD SVG 1.1//EN" "http://www.w3.org/Graphics/SVG/1.1/DTD/svg11.dtd">
<svg version="1.1" id="Layer_1" xmlns="http://www.w3.org/2000/svg" xmlns:xlink="http://www.w3.org/1999/xlink" x="0px" y="0px"
	 width="25px" height="20.317px" viewBox="0 0 25 20.317" enable-background="new 0 0 25 20.317" xml:space="preserve">
<path fill="#FFFFFF" d="M25,2.405c-0.92,0.408-1.908,0.684-2.945,0.808c1.059-0.635,1.872-1.64,2.255-2.838
	c-0.991,0.588-2.089,1.015-3.257,1.245C20.117,0.623,18.784,0,17.309,0c-2.832,0-5.129,2.296-5.129,5.129
	c0,0.402,0.045,0.793,0.133,1.169C8.05,6.084,4.271,4.042,1.741,0.939C1.299,1.696,1.046,2.577,1.046,3.518
	c0,1.779,0.905,3.349,2.282,4.269C2.487,7.76,1.696,7.529,1.005,7.145c0,0.021,0,0.043,0,0.064c0,2.485,1.768,4.559,4.114,5.029
	c-0.43,0.117-0.883,0.18-1.351,0.18c-0.331,0-0.652-0.032-0.965-0.092c0.653,2.038,2.547,3.521,4.792,3.562
	c-1.755,1.376-3.967,2.196-6.37,2.196c-0.414,0-0.822-0.024-1.224-0.072c2.27,1.456,4.966,2.305,7.863,2.305
	c9.434,0,14.593-7.815,14.593-14.593c0-0.222-0.005-0.443-0.016-0.664C23.443,4.337,24.312,3.434,25,2.405z"/>
</svg>
