<svg xmlns="http://www.w3.org/2000/svg" width="54.998" height="120" viewBox="0 0 54.998 120"><path fill="#fff" d="M37.876 0c-5.062 0-7.893 2.956-9.893 6.532v-5.532h-23v2h6v86.47c6 4.08 9.795 10.122 9.795 16.816 0 5.062-3.483 10.939-9.069 10.939-2.302 0-5.192-.816-6.508-3.429 4.603.164 9.729-2.286 9.729-7.021 0-5.387-3.106-7.836-7.872-7.836-4.437 0-7.06 4.733-7.06 8.654.002 7.835 3.724 12.407 11.94 12.407 11.668 0 16.045-9.631 16.045-27.265v-12.735h.918c1.808 5 4.272 6.693 9.367 6.693 13.312 0 16.729-19.59 16.729-43.101.001-34.122-8.41-43.592-17.121-43.592zm.108 73.47c0 4.896-.742 9.143-3.865 9.143-2.479 0-5.135-3.775-6.135-9.956v-56.35c1-7.867 3.09-11.735 6.629-11.735 2.299 0 3.371 1.634 3.371 10.123v58.775z"/></svg>